<svg id="图层_1" data-name="图层 1" xmlns="http://www.w3.org/2000/svg" viewBox="0 0 262.09 56.13"><defs><style>.cls-1{fill:#ea5006;}.cls-2{fill:#8fc31f;}.cls-3{fill:#00a0e9;}.cls-4{fill:#f8b62d;}.cls-5{fill:#727171;}</style></defs><rect class="cls-1" width="26.71" height="26.7"/><rect class="cls-2" x="29.42" width="26.71" height="26.7"/><rect class="cls-3" y="29.42" width="26.71" height="26.7"/><rect class="cls-4" x="29.42" y="29.42" width="26.71" height="26.7"/><path class="cls-5" d="M90.87,36.17h-.14c-.22-.85-9.82-24.65-9.82-24.65h-8v33.1h5.13V23.13a46.89,46.89,0,0,0-.19-5.28H78c.32,1.47,10.9,26.77,10.9,26.77h3.84s10.57-25.33,10.93-26.77h.09c-.21,2.46-.31,3.54-.31,5.24V44.62h5.24V11.52H101S91.51,34.41,90.87,36.17Zm26.56-25.76a3,3,0,0,0-2.18.89,3,3,0,0,0-.89,2.21,2.92,2.92,0,0,0,.89,2.2,3,3,0,0,0,2.18.87,3,3,0,0,0,2.21-.9,2.91,2.91,0,0,0,.91-2.17,2.93,2.93,0,0,0-.91-2.21A3.07,3.07,0,0,0,117.43,10.41Zm-2.77,34.21h5.45v-24h-5.45Zm13.11-20.74a13,13,0,0,0-3.44,9.41,11.85,11.85,0,0,0,3.19,8.57,11.09,11.09,0,0,0,8.37,3.3,12.78,12.78,0,0,0,6.62-1.65v-.92h0v-3.3a8.79,8.79,0,0,1-5.37,1.89,7,7,0,0,1-5.4-2.2,8.61,8.61,0,0,1-2-6,9,9,0,0,1,2.15-6.26,7,7,0,0,1,5.48-2.38,8.92,8.92,0,0,1,5.2,1.7V21.48a13,13,0,0,0-5.63-1.16A12.1,12.1,0,0,0,127.77,23.88Zm27.49-2.25a8.42,8.42,0,0,0-2.5,3.95h-.09V20.64h-5.4v24h5.4V33.53a10.63,10.63,0,0,1,1.65-6.32,4.89,4.89,0,0,1,4.1-2.32,4.74,4.74,0,0,1,2.91.77V20.55a6.23,6.23,0,0,0-2.29-.33A5.77,5.77,0,0,0,155.26,21.63Zm19.2-1.42q-5.88,0-9.34,3.38T161.67,33a11.46,11.46,0,0,0,12.2,12.19,12.21,12.21,0,0,0,9.1-3.43,12.43,12.43,0,0,0,3.39-9.14q0-5.81-3.15-9.1T174.46,20.21Zm4.6,18.54a6,6,0,0,1-4.92,2.12,6.31,6.31,0,0,1-5-2.16,8.69,8.69,0,0,1-1.88-5.9,9.16,9.16,0,0,1,1.86-6.09,6.2,6.2,0,0,1,5-2.21,6,6,0,0,1,4.92,2.13,9.44,9.44,0,0,1,1.73,6.09A9.25,9.25,0,0,1,179.06,38.75Zm41.37-18.54q-5.88,0-9.34,3.38T207.64,33a11.46,11.46,0,0,0,12.2,12.19,12.21,12.21,0,0,0,9.1-3.43,12.43,12.43,0,0,0,3.39-9.14q0-5.81-3.15-9.1T220.43,20.21ZM225,38.75a6,6,0,0,1-4.93,2.12,6.31,6.31,0,0,1-5-2.16,8.69,8.69,0,0,1-1.88-5.9,9.16,9.16,0,0,1,1.86-6.09,6.2,6.2,0,0,1,5-2.21A6,6,0,0,1,225,26.64a9.56,9.56,0,0,1,1.72,6.09A9.36,9.36,0,0,1,225,38.75ZM204.24,35a5.42,5.42,0,0,0-1.37-1.77,9.87,9.87,0,0,0-2.14-1.38c-.84-.4-1.79-.8-2.84-1.19-2.84-1.19-3.6-2.9-3.6-3.78a3,3,0,0,1,3.27-2.52,11.11,11.11,0,0,1,6.06,1.66V21.21a14.28,14.28,0,0,0-5.54-1,13.57,13.57,0,0,0-3.39.42,10,10,0,0,0-2.93,1.26,6.85,6.85,0,0,0-2,2.07,5.28,5.28,0,0,0-.77,2.84c0,.06,0,.12,0,.18s0,.08,0,.12,0,.27,0,.4,0,.16,0,.24a6,6,0,0,0,.41,2.31,5.18,5.18,0,0,0,1.21,1.77,8.18,8.18,0,0,0,2,1.39c1.61,1,6,3.06,6.65,4a2.47,2.47,0,0,1-1.3,3.63,10.61,10.61,0,0,1-2.15.19,11.64,11.64,0,0,1-6.87-2.2v5a14,14,0,0,0,6.38,1.37,15.29,15.29,0,0,0,3.56-.41,9.34,9.34,0,0,0,3-1.23,6.59,6.59,0,0,0,2.08-2.09,5.53,5.53,0,0,0,.78-3v-.24c0-.16,0-.31,0-.47s0-.22,0-.34A5.61,5.61,0,0,0,204.24,35Zm57.85-9.91V20.75h-5.51V14l-5.35,1.18v5.59h-9.1V17.07c0-2.53.87-4.1,3.54-4.1a6.22,6.22,0,0,1,2.82.63V9.19a9.18,9.18,0,0,0-3.05-.42A8.24,8.24,0,0,0,237,16.88v3.87h-4v4.37h4v19.5h5.17V25.12h9.1V38.4c0,4.48,3.05,6.72,7.06,6.72a8.7,8.7,0,0,0,3.8-.72V40.18a4.36,4.36,0,0,1-2.57.76,2.28,2.28,0,0,1-2.16-1,5.37,5.37,0,0,1-.78-3.29V25.12Z"/></svg>